
<?xml version="1.0" encoding="UTF-8" standalone="no"?>
<svg xmlns:svg="http://www.w3.org/2000/svg"
xmlns="http://www.w3.org/2000/svg" version="1.1"
width="100%" height="100%" viewBox="0 0 360.000000 185.000000" preserveAspectRatio="xMidYMid meet">
<!-- Created with the Wikimedia parliament diagram creator (http://tools.wmflabs.org/parliamentdiagram/parliamentinputform.html) -->
<g>
<text x="175" y="175" style="font-size:36px;font-weight:bold;text-align:center;text-anchor:middle;font-family:Sans">182</text>
  <g style="fill:#CCCCCC" id="fff">
    <circle cx="12.24" cy="174.29" r="5.71"/>
    <circle cx="26.53" cy="174.29" r="5.71"/>
    <circle cx="40.83" cy="174.29" r="5.71"/>
    <circle cx="55.13" cy="174.29" r="5.71"/>
    <circle cx="69.43" cy="174.29" r="5.71"/>
    <circle cx="83.74" cy="174.29" r="5.71"/>
    <circle cx="98.06" cy="174.29" r="5.71"/>
    <circle cx="13.44" cy="159.17" r="5.71"/>
    <circle cx="27.85" cy="159.16" r="5.71"/>
    <circle cx="42.28" cy="159.15" r="5.71"/>
    <circle cx="56.75" cy="159.13" r="5.71"/>
    <circle cx="71.27" cy="159.12" r="5.71"/>
    <circle cx="16.00" cy="144.22" r="5.71"/>
    <circle cx="85.86" cy="159.11" r="5.71"/>
    <circle cx="30.65" cy="144.23" r="5.71"/>
    <circle cx="100.56" cy="159.11" r="5.71"/>
    <circle cx="45.38" cy="144.25" r="5.71"/>
    <circle cx="60.21" cy="144.29" r="5.71"/>
    <circle cx="19.90" cy="129.56" r="5.71"/>
    <circle cx="75.18" cy="144.35" r="5.71"/>
    <circle cx="34.92" cy="129.65" r="5.71"/>
    <circle cx="50.08" cy="129.78" r="5.71"/>
    <circle cx="90.36" cy="144.46" r="5.71"/>
    <circle cx="25.11" cy="115.31" r="5.71"/>
    <circle cx="65.45" cy="129.98" r="5.71"/>
    <circle cx="40.60" cy="115.57" r="5.71"/>
    <circle cx="105.85" cy="144.65" r="5.71"/>
    <circle cx="81.09" cy="130.26" r="5.71"/>
    <circle cx="56.33" cy="115.92" r="5.71"/>
    <circle cx="31.58" cy="101.59" r="5.71"/>
    <circle cx="47.65" cy="102.11" r="5.71"/>
    <circle cx="72.39" cy="116.41" r="5.71"/>
    <circle cx="97.12" cy="130.71" r="5.71"/>
    <circle cx="39.27" cy="88.51" r="5.71"/>
    <circle cx="64.06" cy="102.81" r="5.71"/>
    <circle cx="88.88" cy="117.12" r="5.71"/>
    <circle cx="55.99" cy="89.42" r="5.71"/>
    <circle cx="113.75" cy="131.44" r="5.71"/>
    <circle cx="80.93" cy="103.78" r="5.71"/>
    <circle cx="48.10" cy="76.18" r="5.71"/>
    <circle cx="105.98" cy="118.20" r="5.71"/>
    <circle cx="73.17" cy="90.63" r="5.71"/>
    <circle cx="65.54" cy="77.61" r="5.71"/>
    <circle cx="98.40" cy="105.17" r="5.71"/>
    <circle cx="58.01" cy="64.70" r="5.71"/>
    <circle cx="90.94" cy="92.29" r="5.71"/>
    <circle cx="83.55" cy="79.51" r="5.71"/>
    <circle cx="123.97" cy="119.93" r="5.71"/>
    <circle cx="76.21" cy="66.81" r="5.71"/>
    <circle cx="68.92" cy="54.16" r="5.71"/>
    <circle cx="116.71" cy="107.25" r="5.71"/>
    <circle cx="109.48" cy="94.65" r="5.71"/>
    <circle cx="102.27" cy="82.10" r="5.71"/>
    <circle cx="95.08" cy="69.59" r="5.71"/>
    <circle cx="87.90" cy="57.11" r="5.71"/>
    <circle cx="80.73" cy="44.64" r="5.71"/>
    <circle cx="136.16" cy="110.53" r="5.71"/>
    <circle cx="129.03" cy="98.14" r="5.71"/>
    <circle cx="121.90" cy="85.75" r="5.71"/>
    <circle cx="114.77" cy="73.37" r="5.71"/>
    <circle cx="107.63" cy="60.99" r="5.71"/>
    <circle cx="100.49" cy="48.61" r="5.71"/>
    <circle cx="93.36" cy="36.23" r="5.71"/>
    <circle cx="106.69" cy="29.00" r="5.71"/>
    <circle cx="113.86" cy="41.40" r="5.71"/>
    <circle cx="121.04" cy="53.81" r="5.71"/>
    <circle cx="128.23" cy="66.22" r="5.71"/>
    <circle cx="135.43" cy="78.65" r="5.71"/>
    <circle cx="142.65" cy="91.10" r="5.71"/>
    <circle cx="149.89" cy="103.58" r="5.71"/>
    <circle cx="120.62" cy="23.00" r="5.71"/>
    <circle cx="127.88" cy="35.55" r="5.71"/>
    <circle cx="135.15" cy="48.13" r="5.71"/>
    <circle cx="142.46" cy="60.77" r="5.71"/>
    <circle cx="149.81" cy="73.48" r="5.71"/>
    <circle cx="135.03" cy="18.28" r="5.71"/>
    <circle cx="142.40" cy="31.10" r="5.71"/>
    <circle cx="157.20" cy="86.30" r="5.71"/>
    <circle cx="149.80" cy="44.03" r="5.71"/>
    <circle cx="164.68" cy="99.30" r="5.71"/>
    <circle cx="157.25" cy="57.09" r="5.71"/>
    <circle cx="149.82" cy="14.88" r="5.71"/>
    <circle cx="157.29" cy="28.12" r="5.71"/>
    <circle cx="164.76" cy="70.34" r="5.71"/>
    <circle cx="164.81" cy="41.54" r="5.71"/>
    <circle cx="164.85" cy="12.83" r="5.71"/>
    <circle cx="172.34" cy="83.88" r="5.71"/>
    <circle cx="172.38" cy="55.23" r="5.71"/>
    <circle cx="172.41" cy="26.62" r="5.71"/>
    <circle cx="180.00" cy="12.14" r="5.71"/>
    <circle cx="180.00" cy="40.71" r="5.71"/>
    <circle cx="180.00" cy="69.29" r="5.71"/>
    <circle cx="180.00" cy="97.86" r="5.71"/>
    <circle cx="187.59" cy="26.62" r="5.71"/>
    <circle cx="187.62" cy="55.23" r="5.71"/>
    <circle cx="187.66" cy="83.88" r="5.71"/>
    <circle cx="195.15" cy="12.83" r="5.71"/>
    <circle cx="195.19" cy="41.54" r="5.71"/>
    <circle cx="195.24" cy="70.34" r="5.71"/>
    <circle cx="202.71" cy="28.12" r="5.71"/>
    <circle cx="210.18" cy="14.88" r="5.71"/>
    <circle cx="202.75" cy="57.09" r="5.71"/>
    <circle cx="195.32" cy="99.30" r="5.71"/>
    <circle cx="210.20" cy="44.03" r="5.71"/>
    <circle cx="202.80" cy="86.30" r="5.71"/>
    <circle cx="217.60" cy="31.10" r="5.71"/>
    <circle cx="224.97" cy="18.28" r="5.71"/>
    <circle cx="210.19" cy="73.48" r="5.71"/>
    <circle cx="217.54" cy="60.77" r="5.71"/>
    <circle cx="224.85" cy="48.13" r="5.71"/>
    <circle cx="232.12" cy="35.55" r="5.71"/>
    <circle cx="239.38" cy="23.00" r="5.71"/>
    <circle cx="210.11" cy="103.58" r="5.71"/>
    <circle cx="217.35" cy="91.10" r="5.71"/>
    <circle cx="224.57" cy="78.65" r="5.71"/>
    <circle cx="231.77" cy="66.22" r="5.71"/>
    <circle cx="238.96" cy="53.81" r="5.71"/>
    <circle cx="246.14" cy="41.40" r="5.71"/>
    <circle cx="253.31" cy="29.00" r="5.71"/>
    <circle cx="266.64" cy="36.23" r="5.71"/>
    <circle cx="259.51" cy="48.61" r="5.71"/>
    <circle cx="252.37" cy="60.99" r="5.71"/>
    <circle cx="245.23" cy="73.37" r="5.71"/>
    <circle cx="238.10" cy="85.75" r="5.71"/>
    <circle cx="230.97" cy="98.14" r="5.71"/>
    <circle cx="223.84" cy="110.53" r="5.71"/>
    <circle cx="279.27" cy="44.64" r="5.71"/>
    <circle cx="272.10" cy="57.11" r="5.71"/>
    <circle cx="264.92" cy="69.59" r="5.71"/>
    <circle cx="257.73" cy="82.10" r="5.71"/>
    <circle cx="250.52" cy="94.65" r="5.71"/>
    <circle cx="243.29" cy="107.25" r="5.71"/>
    <circle cx="291.08" cy="54.16" r="5.71"/>
    <circle cx="283.79" cy="66.81" r="5.71"/>
    <circle cx="236.03" cy="119.93" r="5.71"/>
    <circle cx="276.45" cy="79.51" r="5.71"/>
    <circle cx="269.06" cy="92.29" r="5.71"/>
    <circle cx="301.99" cy="64.70" r="5.71"/>
    <circle cx="261.60" cy="105.17" r="5.71"/>
    <circle cx="294.46" cy="77.61" r="5.71"/>
    <circle cx="286.83" cy="90.63" r="5.71"/>
    <circle cx="254.02" cy="118.20" r="5.71"/>
    <circle cx="311.90" cy="76.18" r="5.71"/>
    <circle cx="279.07" cy="103.78" r="5.71"/>
    <circle cx="246.25" cy="131.44" r="5.71"/>
    <circle cx="304.01" cy="89.42" r="5.71"/>
    <circle cx="271.12" cy="117.12" r="5.71"/>
    <circle cx="295.94" cy="102.81" r="5.71"/>
    <circle cx="320.73" cy="88.51" r="5.71"/>
    <circle cx="262.88" cy="130.71" r="5.71"/>
    <circle cx="287.61" cy="116.41" r="5.71"/>
    <circle cx="312.35" cy="102.11" r="5.71"/>
    <circle cx="328.42" cy="101.59" r="5.71"/>
    <circle cx="303.67" cy="115.92" r="5.71"/>
    <circle cx="278.91" cy="130.26" r="5.71"/>
    <circle cx="254.15" cy="144.65" r="5.71"/>
    <circle cx="319.40" cy="115.57" r="5.71"/>
    <circle cx="294.55" cy="129.98" r="5.71"/>
    <circle cx="334.89" cy="115.31" r="5.71"/>
    <circle cx="269.64" cy="144.46" r="5.71"/>
    <circle cx="309.92" cy="129.78" r="5.71"/>
    <circle cx="325.08" cy="129.65" r="5.71"/>
    <circle cx="284.82" cy="144.35" r="5.71"/>
    <circle cx="340.10" cy="129.56" r="5.71"/>
    <circle cx="299.79" cy="144.29" r="5.71"/>
    <circle cx="314.62" cy="144.25" r="5.71"/>
    <circle cx="259.44" cy="159.11" r="5.71"/>
    <circle cx="329.35" cy="144.23" r="5.71"/>
    <circle cx="274.14" cy="159.11" r="5.71"/>
    <circle cx="344.00" cy="144.22" r="5.71"/>
    <circle cx="288.73" cy="159.12" r="5.71"/>
    <circle cx="303.25" cy="159.13" r="5.71"/>
    <circle cx="317.72" cy="159.15" r="5.71"/>
    <circle cx="332.15" cy="159.16" r="5.71"/>
    <circle cx="346.56" cy="159.17" r="5.71"/>
    <circle cx="261.94" cy="174.29" r="5.71"/>
    <circle cx="276.26" cy="174.29" r="5.71"/>
    <circle cx="290.57" cy="174.29" r="5.71"/>
    <circle cx="304.87" cy="174.29" r="5.71"/>
    <circle cx="319.17" cy="174.29" r="5.71"/>
    <circle cx="333.47" cy="174.29" r="5.71"/>
    <circle cx="347.76" cy="174.29" r="5.71"/>
  </g>
</g>
</svg>
