<svg height="100%" preserveaspectratio="xMidYMid meet" version="1.1" viewbox="0 0 360.000000 185.000000" width="100%" xmlns="http://www.w3.org/2000/svg" xmlns:svg="http://www.w3.org/2000/svg">
    <g>
        <text fill="#545454" id="text-gujarat" style="font-size:25px;font-weight:bold;text-align:center;text-anchor:middle;" x="175" y="175">
            182
        </text>

        <text fill="#545454" id="text-gujarat" style="font-size:12px;font-weight:bold;text-align:center;text-anchor:middle;" x="12.24" y="174.29">
            182
        </text>

        <g id="Party1" style="fill:#CCCCCC">
            <circle cx="12.24" cy="174.29" id="p1" r="5.71">
            </circle>
            <circle cx="26.53" cy="174.29" id="p2" r="5.71">
            </circle>
            <circle cx="40.83" cy="174.29" id="p3" r="5.71">
            </circle>
            <circle cx="55.13" cy="174.29" id="p4" r="5.71">
            </circle>
            <circle cx="69.43" cy="174.29" id="p5" r="5.71">
            </circle>
            <circle cx="83.74" cy="174.29" id="p6" r="5.71">
            </circle>
            <circle cx="98.06" cy="174.29" id="p7" r="5.71">
            </circle>
            <circle cx="13.44" cy="159.17" id="p8" r="5.71">
            </circle>
            <circle cx="27.85" cy="159.16" id="p9" r="5.71">
            </circle>
            <circle cx="42.28" cy="159.15" id="p10" r="5.71">
            </circle>
            <circle cx="56.75" cy="159.13" id="p11" r="5.71">
            </circle>
            <circle cx="71.27" cy="159.12" id="p12" r="5.71">
            </circle>
            <circle cx="85.86" cy="159.11" id="p13" r="5.71">
            </circle>
            <circle cx="100.56" cy="159.11" id="p14" r="5.71">
            </circle>
            <circle cx="16.00" cy="144.22" id="p15" r="5.71">
            </circle>
            <circle cx="30.65" cy="144.23" id="p16" r="5.71">
            </circle>
            <circle cx="45.38" cy="144.25" id="p17" r="5.71">
            </circle>
            <circle cx="60.21" cy="144.29" id="p18" r="5.71">
            </circle>
            <circle cx="75.18" cy="144.35" id="p19" r="5.71">
            </circle>
            <circle cx="90.36" cy="144.46" id="p20" r="5.71">
            </circle>
            <circle cx="105.85" cy="144.65" id="p21" r="5.71">
            </circle>
            <circle cx="19.90" cy="129.56" id="p22" r="5.71">
            </circle>
            <circle cx="34.92" cy="129.65" id="p23" r="5.71">
            </circle>
            <circle cx="50.08" cy="129.78" id="p24" r="5.71">
            </circle>
            <circle cx="65.45" cy="129.98" id="p25" r="5.71">
            </circle>
            <circle cx="81.09" cy="130.26" id="p26" r="5.71">
            </circle>
            <circle cx="97.12" cy="130.71" id="p27" r="5.71">
            </circle>
            <circle cx="113.75" cy="131.44" id="p28" r="5.71">
            </circle>
            <circle cx="25.11" cy="115.31" id="p29" r="5.71">
            </circle>
            <circle cx="40.60" cy="115.57" id="p30" r="5.71">
            </circle>
            <circle cx="56.33" cy="115.92" id="p31" r="5.71">
            </circle>
            <circle cx="72.39" cy="116.41" id="p32" r="5.71">
            </circle>
            <circle cx="88.88" cy="117.12" id="p33" r="5.71">
            </circle>
            <circle cx="105.98" cy="118.20" id="p34" r="5.71">
            </circle>
            <circle cx="123.97" cy="119.93" id="p35" r="5.71">
            </circle>
            <circle cx="31.58" cy="101.59" id="p36" r="5.71">
            </circle>
            <circle cx="47.65" cy="102.11" id="p37" r="5.71">
            </circle>
            <circle cx="64.06" cy="102.81" id="p38" r="5.71">
            </circle>
            <circle cx="80.93" cy="103.78" id="p39" r="5.71">
            </circle>
            <circle cx="98.40" cy="105.17" id="p40" r="5.71">
            </circle>
            <circle cx="116.71" cy="107.25" id="p41" r="5.71">
            </circle>
            <circle cx="136.16" cy="110.53" id="p42" r="5.71">
            </circle>
            <circle cx="39.27" cy="88.51" id="p43" r="5.71">
            </circle>
            <circle cx="55.99" cy="89.42" id="p44" r="5.71">
            </circle>
            <circle cx="73.17" cy="90.63" id="p45" r="5.71">
            </circle>
            <circle cx="90.94" cy="92.29" id="p46" r="5.71">
            </circle>
            <circle cx="109.48" cy="94.65" id="p47" r="5.71">
            </circle>
            <circle cx="129.03" cy="98.14" id="p48" r="5.71">
            </circle>
            <circle cx="149.89" cy="103.58" id="p49" r="5.71">
            </circle>
            <circle cx="48.10" cy="76.18" id="p50" r="5.71">
            </circle>
            <circle cx="65.54" cy="77.61" id="p51" r="5.71">
            </circle>
            <circle cx="83.55" cy="79.51" id="p52" r="5.71">
            </circle>
            <circle cx="102.27" cy="82.10" id="p53" r="5.71">
            </circle>
            <circle cx="121.90" cy="85.75" id="p54" r="5.71">
            </circle>
            <circle cx="142.65" cy="91.10" id="p55" r="5.71">
            </circle>
            <circle cx="164.68" cy="99.30" id="p56" r="5.71">
            </circle>
            <circle cx="58.01" cy="64.70" id="p57" r="5.71">
            </circle>
            <circle cx="76.21" cy="66.81" id="p58" r="5.71">
            </circle>
            <circle cx="95.08" cy="69.59" id="p59" r="5.71">
            </circle>
            <circle cx="114.77" cy="73.37" id="p60" r="5.71">
            </circle>
            <circle cx="135.43" cy="78.65" id="p61" r="5.71">
            </circle>
            <circle cx="157.20" cy="86.30" id="p62" r="5.71">
            </circle>
            <circle cx="180.00" cy="97.86" id="p63" r="5.71">
            </circle>
            <circle cx="68.92" cy="54.16" id="p64" r="5.71">
            </circle>
            <circle cx="87.90" cy="57.11" id="p65" r="5.71">
            </circle>
            <circle cx="107.63" cy="60.99" id="p66" r="5.71">
            </circle>
            <circle cx="128.23" cy="66.22" id="p67" r="5.71">
            </circle>
            <circle cx="149.81" cy="73.48" id="p68" r="5.71">
            </circle>
            <circle cx="172.34" cy="83.88" id="p69" r="5.71">
            </circle>
            <circle cx="195.32" cy="99.30" id="p70" r="5.71">
            </circle>
            <circle cx="80.73" cy="44.64" id="p71" r="5.71">
            </circle>
            <circle cx="100.49" cy="48.61" id="p72" r="5.71">
            </circle>
            <circle cx="135.15" cy="48.13" id="p73" r="5.71">
            </circle>
            <circle cx="142.46" cy="60.77" id="p74" r="5.71">
            </circle>
            <circle cx="149.81" cy="73.48" id="p75" r="5.71">
            </circle>
            <circle cx="135.03" cy="18.28" id="p76" r="5.71">
            </circle>
            <circle cx="142.40" cy="31.10" id="p77" r="5.71">
            </circle>
            <circle cx="157.20" cy="86.30" id="p78" r="5.71">
            </circle>
            <circle cx="149.80" cy="44.03" id="p79" r="5.71">
            </circle>
            <circle cx="164.68" cy="99.30" id="p80" r="5.71">
            </circle>
            <circle cx="157.25" cy="57.09" id="p81" r="5.71">
            </circle>
            <circle cx="149.82" cy="14.88" id="p82" r="5.71">
            </circle>
            <circle cx="157.29" cy="28.12" id="p83" r="5.71">
            </circle>
            <circle cx="164.76" cy="70.34" id="p84" r="5.71">
            </circle>
            <circle cx="164.81" cy="41.54" id="p85" r="5.71">
            </circle>
            <circle cx="164.85" cy="12.83" id="p86" r="5.71">
            </circle>
            <circle cx="172.34" cy="83.88" id="p87" r="5.71">
            </circle>
            <circle cx="172.38" cy="55.23" id="p88" r="5.71">
            </circle>
            <circle cx="172.41" cy="26.62" id="p89" r="5.71">
            </circle>
            <circle cx="180.00" cy="12.14" id="p90" r="5.71">
            </circle>
            <circle cx="180.00" cy="40.71" id="p91" r="5.71">
            </circle>
            <circle cx="180.00" cy="69.29" id="p92" r="5.71">
            </circle>
            <circle cx="180.00" cy="97.86" id="p93" r="5.71">
            </circle>
            <circle cx="187.59" cy="26.62" id="p94" r="5.71">
            </circle>
            <circle cx="187.62" cy="55.23" id="p95" r="5.71">
            </circle>
            <circle cx="187.66" cy="83.88" id="p96" r="5.71">
            </circle>
            <circle cx="195.15" cy="12.83" id="p97" r="5.71">
            </circle>
            <circle cx="195.19" cy="41.54" id="p98" r="5.71">
            </circle>
            <circle cx="195.24" cy="70.34" id="p99" r="5.71">
            </circle>
            <circle cx="202.71" cy="28.12" id="p100" r="5.71">
            </circle>
            <circle cx="210.18" cy="14.88" id="p101" r="5.71">
            </circle>
            <circle cx="202.75" cy="57.09" id="p102" r="5.71">
            </circle>
            <circle cx="195.32" cy="99.30" id="p103" r="5.71">
            </circle>
            <circle cx="210.20" cy="44.03" id="p104" r="5.71">
            </circle>
            <circle cx="202.80" cy="86.30" id="p105" r="5.71">
            </circle>
            <circle cx="217.60" cy="31.10" id="p106" r="5.71">
            </circle>
            <circle cx="224.97" cy="18.28" id="p107" r="5.71">
            </circle>
            <circle cx="210.19" cy="73.48" id="p108" r="5.71">
            </circle>
            <circle cx="217.54" cy="60.77" id="p109" r="5.71">
            </circle>
            <circle cx="224.85" cy="48.13" id="p110" r="5.71">
            </circle>
            <circle cx="232.12" cy="35.55" id="p111" r="5.71">
            </circle>
            <circle cx="239.38" cy="23.00" id="p112" r="5.71">
            </circle>
            <circle cx="210.11" cy="103.58" id="p113" r="5.71">
            </circle>
            <circle cx="217.35" cy="91.10" id="p114" r="5.71">
            </circle>
            <circle cx="224.57" cy="78.65" id="p115" r="5.71">
            </circle>
            <circle cx="231.77" cy="66.22" id="p116" r="5.71">
            </circle>
            <circle cx="238.96" cy="53.81" id="p117" r="5.71">
            </circle>
            <circle cx="246.14" cy="41.40" id="p118" r="5.71">
            </circle>
            <circle cx="253.31" cy="29.00" id="p119" r="5.71">
            </circle>
            <circle cx="266.64" cy="36.23" id="p120" r="5.71">
            </circle>
            <circle cx="259.51" cy="48.61" id="p121" r="5.71">
            </circle>
            <circle cx="252.37" cy="60.99" id="p122" r="5.71">
            </circle>
            <circle cx="245.23" cy="73.37" id="p123" r="5.71">
            </circle>
            <circle cx="238.10" cy="85.75" id="p124" r="5.71">
            </circle>
            <circle cx="230.97" cy="98.14" id="p125" r="5.71">
            </circle>
            <circle cx="223.84" cy="110.53" id="p126" r="5.71">
            </circle>
            <circle cx="279.27" cy="44.64" id="p127" r="5.71">
            </circle>
            <circle cx="272.10" cy="57.11" id="p128" r="5.71">
            </circle>
            <circle cx="264.92" cy="69.59" id="p129" r="5.71">
            </circle>
            <circle cx="257.73" cy="82.10" id="p130" r="5.71">
            </circle>
            <circle cx="250.52" cy="94.65" id="p131" r="5.71">
            </circle>
            <circle cx="243.29" cy="107.25" id="p132" r="5.71">
            </circle>
            <circle cx="291.08" cy="54.16" id="p133" r="5.71">
            </circle>
            <circle cx="283.79" cy="66.81" id="p134" r="5.71">
            </circle>
            <circle cx="236.03" cy="119.93" id="p135" r="5.71">
            </circle>
            <circle cx="276.45" cy="79.51" id="p136" r="5.71">
            </circle>
            <circle cx="269.06" cy="92.29" id="p137" r="5.71">
            </circle>
            <circle cx="301.99" cy="64.70" id="p138" r="5.71">
            </circle>
            <circle cx="261.60" cy="105.17" id="p139" r="5.71">
            </circle>
            <circle cx="294.46" cy="77.61" id="p140" r="5.71">
            </circle>
            <circle cx="286.83" cy="90.63" id="p141" r="5.71">
            </circle>
            <circle cx="254.02" cy="118.20" id="p142" r="5.71">
            </circle>
            <circle cx="311.90" cy="76.18" id="p143" r="5.71">
            </circle>
            <circle cx="279.07" cy="103.78" id="p144" r="5.71">
            </circle>
            <circle cx="246.25" cy="131.44" id="p145" r="5.71">
            </circle>
            <circle cx="304.01" cy="89.42" id="p146" r="5.71">
            </circle>
            <circle cx="271.12" cy="117.12" id="p147" r="5.71">
            </circle>
            <circle cx="295.94" cy="102.81" id="p148" r="5.71">
            </circle>
            <circle cx="320.73" cy="88.51" id="p149" r="5.71">
            </circle>
            <circle cx="262.88" cy="130.71" id="p150" r="5.71">
            </circle>
            <circle cx="287.61" cy="116.41" id="p151" r="5.71">
            </circle>
            <circle cx="312.35" cy="102.11" id="p152" r="5.71">
            </circle>
            <circle cx="328.42" cy="101.59" id="p153" r="5.71">
            </circle>
            <circle cx="303.67" cy="115.92" id="p154" r="5.71">
            </circle>
            <circle cx="278.91" cy="130.26" id="p155" r="5.71">
            </circle>
            <circle cx="254.15" cy="144.65" id="p156" r="5.71">
            </circle>
            <circle cx="319.40" cy="115.57" id="p157" r="5.71">
            </circle>
            <circle cx="294.55" cy="129.98" id="p158" r="5.71">
            </circle>
            <circle cx="334.89" cy="115.31" id="p159" r="5.71">
            </circle>
            <circle cx="269.64" cy="144.46" id="p160" r="5.71">
            </circle>
            <circle cx="309.92" cy="129.78" id="p161" r="5.71">
            </circle>
            <circle cx="325.08" cy="129.65" id="p162" r="5.71">
            </circle>
            <circle cx="284.82" cy="144.35" id="p163" r="5.71">
            </circle>
            <circle cx="340.10" cy="129.56" id="p164" r="5.71">
            </circle>
            <circle cx="299.79" cy="144.29" id="p165" r="5.71">
            </circle>
            <circle cx="314.62" cy="144.25" id="p166" r="5.71">
            </circle>
            <circle cx="259.44" cy="159.11" id="p167" r="5.71">
            </circle>
            <circle cx="329.35" cy="144.23" id="p168" r="5.71">
            </circle>
            <circle cx="274.14" cy="159.11" id="p169" r="5.71">
            </circle>
            <circle cx="344.00" cy="144.22" id="p170" r="5.71">
            </circle>
            <circle cx="288.73" cy="159.12" id="p171" r="5.71">
            </circle>
            <circle cx="303.25" cy="159.13" id="p172" r="5.71">
            </circle>
            <circle cx="317.72" cy="159.15" id="p173" r="5.71">
            </circle>
            <circle cx="332.15" cy="159.16" id="p174" r="5.71">
            </circle>
            <circle cx="346.56" cy="159.17" id="p175" r="5.71">
            </circle>
            <circle cx="261.94" cy="174.29" id="p176" r="5.71">
            </circle>
            <circle cx="276.26" cy="174.29" id="p177" r="5.71">
            </circle>
            <circle cx="290.57" cy="174.29" id="p178" r="5.71">
            </circle>
            <circle cx="304.87" cy="174.29" id="p179" r="5.71">
            </circle>
            <circle cx="319.17" cy="174.29" id="p180" r="5.71">
            </circle>
            <circle cx="333.47" cy="174.29" id="p181" r="5.71">
            </circle>
            <circle cx="347.76" cy="174.29" id="p182" r="5.71">
            </circle>
        </g>
    </g>
</svg>